# MagicaVoxel @ ephtracy

# material
mtllib streetlight.mtl
usemtl palette

# normals
vn -1 0 0
vn 1 0 0
vn 0 0 1
vn 0 0 -1
vn 0 -1 0
vn 0 1 0

# texcoords
vt 0.306641 0.5
vt 0.962891 0.5
vt 0.966797 0.5
vt 0.970703 0.5
vt 0.978516 0.5
vt 0.982422 0.5
vt 0.986328 0.5
vt 0.990234 0.5

# verts
v -6 0 -14.5
v -6 0 -21.5
v -6 0 -22.5
v -6 1 -14.5
v -6 1 -21.5
v -6 1 -22.5
v -5 0 -22.5
v -5 0 -24.5
v -5 1 -15.5
v -5 1 -16.5
v -5 1 -22.5
v -5 1 -23.5
v -5 1 -24.5
v -5 2 -15.5
v -5 2 -16.5
v -5 2 -23.5
v -5 2 -24.5
v -5 121 23.5
v -5 121 15.5
v -5 122 23.5
v -5 122 15.5
v -4 0 -24.5
v -4 0 -25.5
v -4 1 -24.5
v -4 1 -25.5
v -4 120 23.5
v -4 120 15.5
v -4 121 23.5
v -4 121 15.5
v -3 1 -16.5
v -3 1 -18.5
v -3 1 -19.5
v -3 1 -22.5
v -3 2 -19.5
v -3 2 -20.5
v -3 3 -17.5
v -3 3 -18.5
v -3 6 -19.5
v -3 6 -20.5
v -3 10 -19.5
v -3 10 -20.5
v -3 21 -17.5
v -3 21 -18.5
v -3 30 -17.5
v -3 30 -18.5
v -3 38 -17.5
v -3 38 -18.5
v -3 43 -17.5
v -3 43 -18.5
v -3 53 -17.5
v -3 53 -18.5
v -3 67 -17.5
v -3 67 -18.5
v -3 81 -16.5
v -3 81 -17.5
v -3 81 -20.5
v -3 81 -22.5
v -3 120 24.5
v -3 120 23.5
v -3 120 15.5
v -3 120 13.5
v -3 121 25.5
v -3 121 24.5
v -3 121 23.5
v -3 121 15.5
v -3 121 13.5
v -3 122 25.5
v -3 122 23.5
v -3 122 15.5
v -3 122 13.5
v -2 81 -17.5
v -2 81 -20.5
v -2 81 -21.5
v -2 82 -18.5
v -2 82 -19.5
v -2 120 13.5
v -2 120 -17.5
v -2 121 13.5
v -2 122 13.5
v -2 122 -18.5
v -2 122 -19.5
v -2 122 -21.5
v 3 120 22.5
v 3 120 16.5
v 3 121 22.5
v 3 121 16.5
v 4 1 -15.5
v 4 1 -16.5
v 4 1 -23.5
v 4 1 -24.5
v 4 2 -15.5
v 4 2 -16.5
v 4 2 -23.5
v 4 2 -24.5
v -4 1 -15.5
v -4 1 -16.5
v -4 1 -23.5
v -4 1 -24.5
v -4 2 -15.5
v -4 2 -16.5
v -4 2 -23.5
v -4 2 -24.5
v -3 120 22.5
v -3 120 16.5
v -3 121 22.5
v -3 121 16.5
v 2 81 -17.5
v 2 81 -21.5
v 2 82 -17.5
v 2 82 -18.5
v 2 120 13.5
v 2 120 -17.5
v 2 120 -18.5
v 2 121 13.5
v 2 122 13.5
v 2 122 -21.5
v 3 1 -16.5
v 3 1 -22.5
v 3 81 -16.5
v 3 81 -22.5
v 3 120 24.5
v 3 120 23.5
v 3 120 15.5
v 3 120 13.5
v 3 121 25.5
v 3 121 24.5
v 3 121 23.5
v 3 121 15.5
v 3 121 13.5
v 3 122 25.5
v 3 122 23.5
v 3 122 15.5
v 3 122 13.5
v 4 120 23.5
v 4 120 15.5
v 4 121 23.5
v 4 121 15.5
v 5 1 -15.5
v 5 1 -16.5
v 5 1 -23.5
v 5 1 -24.5
v 5 2 -15.5
v 5 2 -16.5
v 5 2 -23.5
v 5 2 -24.5
v 5 121 23.5
v 5 121 15.5
v 5 122 23.5
v 5 122 15.5
v 6 0 -14.5
v 6 0 -25.5
v 6 1 -14.5
v 6 1 -25.5
v -3 121 25.5
v -3 122 25.5
v 3 121 25.5
v 3 122 25.5
v -3 120 24.5
v -3 121 24.5
v 3 120 24.5
v 3 121 24.5
v -5 121 23.5
v -5 122 23.5
v -4 120 23.5
v -4 121 23.5
v -3 120 23.5
v -3 121 23.5
v -3 122 23.5
v 3 120 23.5
v 3 121 23.5
v 3 122 23.5
v 4 120 23.5
v 4 121 23.5
v 5 121 23.5
v 5 122 23.5
v -3 120 16.5
v -3 121 16.5
v 3 120 16.5
v 3 121 16.5
v -6 0 -14.5
v -6 1 -14.5
v 6 0 -14.5
v 6 1 -14.5
v -5 1 -15.5
v -5 2 -15.5
v -4 1 -15.5
v -4 2 -15.5
v 4 1 -15.5
v 4 2 -15.5
v 5 1 -15.5
v 5 2 -15.5
v -3 1 -16.5
v -3 81 -16.5
v -2 1 -16.5
v -2 81 -16.5
v -1 1 -16.5
v -1 81 -16.5
v 0 1 -16.5
v 0 81 -16.5
v 2 1 -16.5
v 2 81 -16.5
v 3 1 -16.5
v 3 81 -16.5
v -2 81 -17.5
v -2 120 -17.5
v -1 81 -17.5
v 0 81 -17.5
v 0 82 -17.5
v 0 120 -17.5
v 2 81 -17.5
v 2 82 -17.5
v 2 120 -17.5
v -5 1 -23.5
v -5 2 -23.5
v -4 1 -23.5
v -4 2 -23.5
v 4 1 -23.5
v 4 2 -23.5
v 5 1 -23.5
v 5 2 -23.5
v -3 120 22.5
v -3 121 22.5
v 3 120 22.5
v 3 121 22.5
v -5 121 15.5
v -5 122 15.5
v -4 120 15.5
v -4 121 15.5
v -3 120 15.5
v -3 121 15.5
v -3 122 15.5
v 3 120 15.5
v 3 121 15.5
v 3 122 15.5
v 4 120 15.5
v 4 121 15.5
v 5 121 15.5
v 5 122 15.5
v -3 120 13.5
v -3 121 13.5
v -3 122 13.5
v -2 120 13.5
v -2 121 13.5
v -2 122 13.5
v 2 120 13.5
v 2 121 13.5
v 2 122 13.5
v 3 120 13.5
v 3 121 13.5
v 3 122 13.5
v -5 1 -16.5
v -5 2 -16.5
v -4 1 -16.5
v -4 2 -16.5
v 4 1 -16.5
v 4 2 -16.5
v 5 1 -16.5
v 5 2 -16.5
v -2 81 -21.5
v -2 122 -21.5
v 2 81 -21.5
v 2 122 -21.5
v -6 0 -22.5
v -6 1 -22.5
v -5 0 -22.5
v -5 1 -22.5
v -3 1 -22.5
v -3 81 -22.5
v 3 1 -22.5
v 3 81 -22.5
v -5 0 -24.5
v -5 1 -24.5
v -5 2 -24.5
v -4 0 -24.5
v -4 1 -24.5
v -4 2 -24.5
v 4 1 -24.5
v 4 2 -24.5
v 5 1 -24.5
v 5 2 -24.5
v -4 0 -25.5
v -4 1 -25.5
v -3 0 -25.5
v -3 1 -25.5
v 6 0 -25.5
v 6 1 -25.5
v -6 0 -14.5
v 6 0 -14.5
v -3 0 -16.5
v -2 0 -16.5
v -1 0 -16.5
v 0 0 -16.5
v 2 0 -16.5
v 3 0 -16.5
v -3 0 -17.5
v -2 0 -17.5
v -1 0 -17.5
v 0 0 -17.5
v 2 0 -17.5
v -3 0 -20.5
v -2 0 -20.5
v -6 0 -21.5
v -5 0 -21.5
v -2 0 -21.5
v 2 0 -21.5
v -6 0 -22.5
v -5 0 -22.5
v -4 0 -22.5
v -3 0 -22.5
v 3 0 -22.5
v -4 0 -23.5
v -3 0 -23.5
v -5 0 -24.5
v -4 0 -24.5
v -4 0 -25.5
v -3 0 -25.5
v 6 0 -25.5
v -3 120 24.5
v 3 120 24.5
v -4 120 23.5
v -3 120 23.5
v 3 120 23.5
v 4 120 23.5
v -3 120 22.5
v 3 120 22.5
v -3 120 16.5
v 3 120 16.5
v -4 120 15.5
v -3 120 15.5
v 3 120 15.5
v 4 120 15.5
v -3 120 13.5
v -2 120 13.5
v 2 120 13.5
v 3 120 13.5
v -2 120 -17.5
v 0 120 -17.5
v 2 120 -17.5
v -3 121 25.5
v 3 121 25.5
v -3 121 24.5
v 3 121 24.5
v -5 121 23.5
v -4 121 23.5
v 4 121 23.5
v 5 121 23.5
v -3 121 22.5
v 3 121 22.5
v -3 121 16.5
v 3 121 16.5
v -5 121 15.5
v -4 121 15.5
v 4 121 15.5
v 5 121 15.5
v -6 1 -14.5
v 6 1 -14.5
v -5 1 -15.5
v -4 1 -15.5
v 4 1 -15.5
v 5 1 -15.5
v -5 1 -16.5
v -4 1 -16.5
v -3 1 -16.5
v -2 1 -16.5
v -1 1 -16.5
v 0 1 -16.5
v 2 1 -16.5
v 3 1 -16.5
v 4 1 -16.5
v 5 1 -16.5
v -3 1 -18.5
v -3 1 -19.5
v -6 1 -21.5
v -5 1 -21.5
v -6 1 -22.5
v -5 1 -22.5
v -4 1 -22.5
v -3 1 -22.5
v 3 1 -22.5
v -5 1 -23.5
v -4 1 -23.5
v -3 1 -23.5
v 4 1 -23.5
v 5 1 -23.5
v -4 1 -24.5
v 4 1 -24.5
v 5 1 -24.5
v -4 1 -25.5
v -3 1 -25.5
v 6 1 -25.5
v -5 2 -15.5
v -4 2 -15.5
v 4 2 -15.5
v 5 2 -15.5
v -5 2 -16.5
v -4 2 -16.5
v 4 2 -16.5
v 5 2 -16.5
v -5 2 -23.5
v -4 2 -23.5
v 4 2 -23.5
v 5 2 -23.5
v -5 2 -24.5
v -4 2 -24.5
v 4 2 -24.5
v 5 2 -24.5
v -3 81 -16.5
v -2 81 -16.5
v -1 81 -16.5
v 0 81 -16.5
v 2 81 -16.5
v 3 81 -16.5
v -3 81 -17.5
v -2 81 -17.5
v -1 81 -17.5
v 0 81 -17.5
v 2 81 -17.5
v -3 81 -20.5
v -2 81 -20.5
v -2 81 -21.5
v 2 81 -21.5
v -3 81 -22.5
v 3 81 -22.5
v -3 122 25.5
v 3 122 25.5
v -5 122 23.5
v -3 122 23.5
v 3 122 23.5
v 5 122 23.5
v -5 122 15.5
v -3 122 15.5
v 3 122 15.5
v 5 122 15.5
v -3 122 13.5
v -2 122 13.5
v 2 122 13.5
v 3 122 13.5
v -2 122 -18.5
v -1 122 -18.5
v -2 122 -19.5
v -1 122 -19.5
v -2 122 -21.5
v 2 122 -21.5

# faces
f 4/7/1 2/7/1 1/7/1
f 5/6/1 3/6/1 2/6/1
f 5/7/1 2/7/1 4/7/1
f 6/6/1 3/6/1 5/6/1
f 11/6/1 8/6/1 7/6/1
f 12/6/1 8/6/1 11/6/1
f 13/6/1 8/6/1 12/6/1
f 14/4/1 10/4/1 9/4/1
f 15/4/1 10/4/1 14/4/1
f 16/5/1 13/5/1 12/5/1
f 17/5/1 13/5/1 16/5/1
f 20/8/1 19/8/1 18/8/1
f 21/8/1 19/8/1 20/8/1
f 24/6/1 23/6/1 22/6/1
f 25/6/1 23/6/1 24/6/1
f 28/2/1 27/2/1 26/2/1
f 29/2/1 27/2/1 28/2/1
f 34/7/1 32/7/1 31/7/1
f 34/8/1 33/8/1 32/8/1
f 35/8/1 33/8/1 34/8/1
f 36/8/1 31/8/1 30/8/1
f 37/7/1 34/7/1 31/7/1
f 37/8/1 31/8/1 36/8/1
f 37/7/1 35/7/1 34/7/1
f 38/7/1 37/7/1 36/7/1
f 38/7/1 35/7/1 37/7/1
f 39/8/1 33/8/1 35/8/1
f 39/7/1 35/7/1 38/7/1
f 40/7/1 38/7/1 36/7/1
f 40/8/1 39/8/1 38/8/1
f 41/8/1 33/8/1 39/8/1
f 41/8/1 39/8/1 40/8/1
f 42/7/1 40/7/1 36/7/1
f 42/8/1 36/8/1 30/8/1
f 42/7/1 41/7/1 40/7/1
f 43/7/1 41/7/1 42/7/1
f 44/8/1 42/8/1 30/8/1
f 44/8/1 43/8/1 42/8/1
f 45/7/1 41/7/1 43/7/1
f 45/8/1 43/8/1 44/8/1
f 46/8/1 44/8/1 30/8/1
f 46/7/1 45/7/1 44/7/1
f 47/7/1 41/7/1 45/7/1
f 47/7/1 45/7/1 46/7/1
f 48/8/1 46/8/1 30/8/1
f 48/8/1 47/8/1 46/8/1
f 49/7/1 41/7/1 47/7/1
f 49/8/1 47/8/1 48/8/1
f 50/8/1 48/8/1 30/8/1
f 50/7/1 49/7/1 48/7/1
f 51/7/1 41/7/1 49/7/1
f 51/7/1 49/7/1 50/7/1
f 52/8/1 50/8/1 30/8/1
f 52/8/1 51/8/1 50/8/1
f 53/7/1 41/7/1 51/7/1
f 53/8/1 51/8/1 52/8/1
f 54/8/1 52/8/1 30/8/1
f 55/7/1 53/7/1 52/7/1
f 55/8/1 52/8/1 54/8/1
f 56/8/1 33/8/1 41/8/1
f 56/7/1 53/7/1 55/7/1
f 56/7/1 41/7/1 53/7/1
f 57/8/1 33/8/1 56/8/1
f 63/2/1 59/2/1 58/2/1
f 64/2/1 59/2/1 63/2/1
f 65/2/1 61/2/1 60/2/1
f 66/2/1 61/2/1 65/2/1
f 67/8/1 64/8/1 63/8/1
f 67/8/1 63/8/1 62/8/1
f 68/8/1 64/8/1 67/8/1
f 69/8/1 66/8/1 65/8/1
f 70/8/1 66/8/1 69/8/1
f 74/8/1 72/8/1 71/8/1
f 74/8/1 73/8/1 72/8/1
f 75/8/1 73/8/1 74/8/1
f 77/8/1 74/8/1 71/8/1
f 78/8/1 77/8/1 76/8/1
f 79/8/1 77/8/1 78/8/1
f 80/7/1 75/7/1 74/7/1
f 80/8/1 77/8/1 79/8/1
f 80/8/1 74/8/1 77/8/1
f 81/8/1 73/8/1 75/8/1
f 81/7/1 75/7/1 80/7/1
f 82/8/1 73/8/1 81/8/1
f 85/2/1 84/2/1 83/2/1
f 86/2/1 84/2/1 85/2/1
f 91/3/1 88/3/1 87/3/1
f 92/3/1 88/3/1 91/3/1
f 93/4/1 90/4/1 89/4/1
f 94/4/1 90/4/1 93/4/1
f 95/4/2 96/4/2 99/4/2
f 99/4/2 96/4/2 100/4/2
f 97/5/2 98/5/2 101/5/2
f 101/5/2 98/5/2 102/5/2
f 103/2/2 104/2/2 105/2/2
f 105/2/2 104/2/2 106/2/2
f 107/8/2 108/8/2 109/8/2
f 109/8/2 108/8/2 110/8/2
f 109/7/2 110/7/2 112/7/2
f 110/8/2 108/8/2 113/8/2
f 112/7/2 110/7/2 113/7/2
f 111/8/2 112/8/2 114/8/2
f 112/8/2 113/8/2 114/8/2
f 114/8/2 113/8/2 115/8/2
f 113/8/2 108/8/2 116/8/2
f 115/8/2 113/8/2 116/8/2
f 117/8/2 118/8/2 119/8/2
f 119/8/2 118/8/2 120/8/2
f 121/2/2 122/2/2 126/2/2
f 126/2/2 122/2/2 127/2/2
f 123/2/2 124/2/2 128/2/2
f 128/2/2 124/2/2 129/2/2
f 126/8/2 127/8/2 130/8/2
f 125/8/2 126/8/2 130/8/2
f 130/8/2 127/8/2 131/8/2
f 128/8/2 129/8/2 132/8/2
f 132/8/2 129/8/2 133/8/2
f 134/2/2 135/2/2 136/2/2
f 136/2/2 135/2/2 137/2/2
f 138/3/2 139/3/2 142/3/2
f 142/3/2 139/3/2 143/3/2
f 140/4/2 141/4/2 144/4/2
f 144/4/2 141/4/2 145/4/2
f 146/8/2 147/8/2 148/8/2
f 148/8/2 147/8/2 149/8/2
f 150/7/2 151/7/2 152/7/2
f 152/7/2 151/7/2 153/7/2
f 156/8/3 155/8/3 154/8/3
f 157/8/3 155/8/3 156/8/3
f 160/2/3 159/2/3 158/2/3
f 161/2/3 159/2/3 160/2/3
f 165/8/3 163/8/3 162/8/3
f 166/2/3 165/2/3 164/2/3
f 167/8/3 163/8/3 165/8/3
f 167/2/3 165/2/3 166/2/3
f 168/8/3 163/8/3 167/8/3
f 172/2/3 170/2/3 169/2/3
f 173/8/3 171/8/3 170/8/3
f 173/2/3 170/2/3 172/2/3
f 174/8/3 171/8/3 173/8/3
f 175/8/3 171/8/3 174/8/3
f 178/2/3 177/2/3 176/2/3
f 179/2/3 177/2/3 178/2/3
f 182/7/3 181/7/3 180/7/3
f 183/7/3 181/7/3 182/7/3
f 186/4/3 185/4/3 184/4/3
f 187/4/3 185/4/3 186/4/3
f 190/3/3 189/3/3 188/3/3
f 191/3/3 189/3/3 190/3/3
f 194/8/3 193/8/3 192/8/3
f 195/8/3 193/8/3 194/8/3
f 196/7/3 195/7/3 194/7/3
f 197/7/3 195/7/3 196/7/3
f 198/8/3 197/8/3 196/8/3
f 199/8/3 197/8/3 198/8/3
f 200/7/3 199/7/3 198/7/3
f 201/7/3 199/7/3 200/7/3
f 202/8/3 201/8/3 200/8/3
f 203/8/3 201/8/3 202/8/3
f 206/8/3 205/8/3 204/8/3
f 207/8/3 205/8/3 206/8/3
f 208/8/3 205/8/3 207/8/3
f 209/8/3 205/8/3 208/8/3
f 210/8/3 208/8/3 207/8/3
f 211/7/3 209/7/3 208/7/3
f 211/8/3 208/8/3 210/8/3
f 212/7/3 209/7/3 211/7/3
f 215/5/3 214/5/3 213/5/3
f 216/5/3 214/5/3 215/5/3
f 219/4/3 218/4/3 217/4/3
f 220/4/3 218/4/3 219/4/3
f 221/2/4 222/2/4 223/2/4
f 223/2/4 222/2/4 224/2/4
f 225/8/4 226/8/4 228/8/4
f 227/2/4 228/2/4 229/2/4
f 228/8/4 226/8/4 230/8/4
f 229/2/4 228/2/4 230/2/4
f 230/8/4 226/8/4 231/8/4
f 232/2/4 233/2/4 235/2/4
f 233/8/4 234/8/4 236/8/4
f 235/2/4 233/2/4 236/2/4
f 236/8/4 234/8/4 237/8/4
f 237/8/4 234/8/4 238/8/4
f 239/2/4 240/2/4 242/2/4
f 240/8/4 241/8/4 243/8/4
f 242/2/4 240/2/4 243/2/4
f 243/8/4 241/8/4 244/8/4
f 245/2/4 246/2/4 248/2/4
f 246/8/4 247/8/4 249/8/4
f 248/2/4 246/2/4 249/2/4
f 249/8/4 247/8/4 250/8/4
f 251/4/4 252/4/4 253/4/4
f 253/4/4 252/4/4 254/4/4
f 255/3/4 256/3/4 257/3/4
f 257/3/4 256/3/4 258/3/4
f 259/8/4 260/8/4 261/8/4
f 261/8/4 260/8/4 262/8/4
f 263/6/4 264/6/4 265/6/4
f 265/6/4 264/6/4 266/6/4
f 267/8/4 268/8/4 269/8/4
f 269/8/4 268/8/4 270/8/4
f 271/6/4 272/6/4 274/6/4
f 272/5/4 273/5/4 275/5/4
f 274/6/4 272/6/4 275/6/4
f 275/5/4 273/5/4 276/5/4
f 277/4/4 278/4/4 279/4/4
f 279/4/4 278/4/4 280/4/4
f 281/6/4 282/6/4 283/6/4
f 283/6/4 282/6/4 284/6/4
f 283/7/4 284/7/4 285/7/4
f 285/7/4 284/7/4 286/7/4
f 289/7/5 288/7/5 287/7/5
f 290/7/5 288/7/5 289/7/5
f 291/7/5 288/7/5 290/7/5
f 292/7/5 288/7/5 291/7/5
f 293/7/5 288/7/5 292/7/5
f 294/7/5 288/7/5 293/7/5
f 295/7/5 289/7/5 287/7/5
f 295/8/5 290/8/5 289/8/5
f 296/7/5 291/7/5 290/7/5
f 296/8/5 290/8/5 295/8/5
f 297/8/5 292/8/5 291/8/5
f 297/7/5 291/7/5 296/7/5
f 298/7/5 293/7/5 292/7/5
f 298/8/5 292/8/5 297/8/5
f 299/8/5 294/8/5 293/8/5
f 299/7/5 293/7/5 298/7/5
f 300/7/5 295/7/5 287/7/5
f 300/7/5 296/7/5 295/7/5
f 301/1/5 298/1/5 297/1/5
f 301/7/5 296/7/5 300/7/5
f 301/1/5 299/1/5 298/1/5
f 301/1/5 297/1/5 296/1/5
f 302/7/5 300/7/5 287/7/5
f 303/7/5 300/7/5 302/7/5
f 304/1/5 299/1/5 301/1/5
f 304/8/5 301/8/5 300/8/5
f 305/8/5 294/8/5 299/8/5
f 305/1/5 299/1/5 304/1/5
f 306/6/5 303/6/5 302/6/5
f 307/7/5 300/7/5 303/7/5
f 307/6/5 303/6/5 306/6/5
f 308/7/5 300/7/5 307/7/5
f 309/8/5 304/8/5 300/8/5
f 309/7/5 300/7/5 308/7/5
f 309/8/5 305/8/5 304/8/5
f 310/7/5 288/7/5 294/7/5
f 310/8/5 305/8/5 309/8/5
f 310/8/5 294/8/5 305/8/5
f 311/7/5 309/7/5 308/7/5
f 311/6/5 308/6/5 307/6/5
f 311/7/5 310/7/5 309/7/5
f 312/7/5 310/7/5 311/7/5
f 313/6/5 311/6/5 307/6/5
f 313/6/5 312/6/5 311/6/5
f 314/6/5 312/6/5 313/6/5
f 315/6/5 312/6/5 314/6/5
f 316/7/5 310/7/5 312/7/5
f 316/6/5 312/6/5 315/6/5
f 317/7/5 288/7/5 310/7/5
f 317/7/5 310/7/5 316/7/5
f 321/2/5 319/2/5 318/2/5
f 322/2/5 319/2/5 321/2/5
f 324/2/5 321/2/5 320/2/5
f 324/2/5 323/2/5 322/2/5
f 324/2/5 322/2/5 321/2/5
f 325/2/5 323/2/5 324/2/5
f 326/2/5 324/2/5 320/2/5
f 327/2/5 323/2/5 325/2/5
f 328/2/5 326/2/5 320/2/5
f 328/2/5 327/2/5 326/2/5
f 329/2/5 327/2/5 328/2/5
f 330/2/5 323/2/5 327/2/5
f 330/2/5 327/2/5 329/2/5
f 331/2/5 323/2/5 330/2/5
f 332/2/5 330/2/5 329/2/5
f 333/2/5 330/2/5 332/2/5
f 334/2/5 330/2/5 333/2/5
f 335/2/5 330/2/5 334/2/5
f 336/8/5 334/8/5 333/8/5
f 337/8/5 334/8/5 336/8/5
f 338/8/5 334/8/5 337/8/5
f 341/8/5 340/8/5 339/8/5
f 342/8/5 340/8/5 341/8/5
f 349/8/5 348/8/5 347/8/5
f 350/8/5 348/8/5 349/8/5
f 351/8/5 344/8/5 343/8/5
f 352/8/5 344/8/5 351/8/5
f 353/8/5 346/8/5 345/8/5
f 354/8/5 346/8/5 353/8/5
f 355/7/6 356/7/6 357/7/6
f 357/7/6 356/7/6 358/7/6
f 358/7/6 356/7/6 359/7/6
f 359/7/6 356/7/6 360/7/6
f 355/7/6 357/7/6 361/7/6
f 358/7/6 359/7/6 362/7/6
f 362/7/6 359/7/6 363/7/6
f 363/7/6 359/7/6 364/7/6
f 364/7/6 359/7/6 365/7/6
f 365/7/6 359/7/6 366/7/6
f 366/7/6 359/7/6 367/7/6
f 367/7/6 359/7/6 368/7/6
f 368/7/6 359/7/6 369/7/6
f 360/7/6 356/7/6 370/7/6
f 361/7/6 362/7/6 371/7/6
f 362/7/6 363/7/6 371/7/6
f 361/7/6 371/7/6 372/7/6
f 355/7/6 361/7/6 373/7/6
f 361/7/6 372/7/6 373/7/6
f 373/7/6 372/7/6 374/7/6
f 373/6/6 374/6/6 375/6/6
f 374/7/6 372/7/6 376/7/6
f 375/6/6 374/6/6 376/6/6
f 376/7/6 372/7/6 377/7/6
f 377/7/6 372/7/6 378/7/6
f 368/7/6 369/7/6 379/7/6
f 369/7/6 370/7/6 379/7/6
f 376/6/6 377/6/6 380/6/6
f 377/7/6 378/7/6 381/7/6
f 380/6/6 377/6/6 381/6/6
f 378/7/6 379/7/6 381/7/6
f 381/7/6 379/7/6 382/7/6
f 379/7/6 370/7/6 383/7/6
f 382/7/6 379/7/6 383/7/6
f 370/7/6 356/7/6 384/7/6
f 383/7/6 370/7/6 384/7/6
f 381/6/6 382/6/6 385/6/6
f 382/7/6 383/7/6 386/7/6
f 384/7/6 356/7/6 387/7/6
f 385/6/6 382/6/6 388/6/6
f 382/7/6 386/7/6 389/7/6
f 388/6/6 382/6/6 389/6/6
f 386/7/6 387/7/6 389/7/6
f 387/7/6 356/7/6 390/7/6
f 389/7/6 387/7/6 390/7/6
f 391/4/6 392/4/6 395/4/6
f 395/4/6 392/4/6 396/4/6
f 393/3/6 394/3/6 397/3/6
f 397/3/6 394/3/6 398/3/6
f 399/5/6 400/5/6 403/5/6
f 403/5/6 400/5/6 404/5/6
f 401/4/6 402/4/6 405/4/6
f 405/4/6 402/4/6 406/4/6
f 407/8/6 408/8/6 413/8/6
f 408/7/6 409/7/6 414/7/6
f 413/8/6 408/8/6 414/8/6
f 409/8/6 410/8/6 415/8/6
f 414/7/6 409/7/6 415/7/6
f 410/7/6 411/7/6 416/7/6
f 415/8/6 410/8/6 416/8/6
f 411/8/6 412/8/6 417/8/6
f 416/7/6 411/7/6 417/7/6
f 413/7/6 414/7/6 418/7/6
f 418/7/6 414/7/6 419/7/6
f 418/8/6 419/8/6 420/8/6
f 417/8/6 412/8/6 421/8/6
f 418/8/6 420/8/6 422/8/6
f 420/8/6 421/8/6 422/8/6
f 421/8/6 412/8/6 423/8/6
f 422/8/6 421/8/6 423/8/6
f 424/8/6 425/8/6 427/8/6
f 427/8/6 425/8/6 428/8/6
f 426/8/6 427/8/6 430/8/6
f 428/8/6 429/8/6 430/8/6
f 427/8/6 428/8/6 430/8/6
f 430/8/6 429/8/6 431/8/6
f 431/8/6 429/8/6 432/8/6
f 432/8/6 429/8/6 433/8/6
f 431/8/6 432/8/6 434/8/6
f 434/8/6 432/8/6 435/8/6
f 435/8/6 432/8/6 436/8/6
f 436/8/6 432/8/6 437/8/6
f 435/8/6 436/8/6 438/8/6
f 438/8/6 436/8/6 439/8/6
f 438/7/6 439/7/6 440/7/6
f 439/8/6 436/8/6 441/8/6
f 440/7/6 439/7/6 441/7/6
f 440/8/6 441/8/6 442/8/6
f 441/8/6 436/8/6 443/8/6
f 442/8/6 441/8/6 443/8/6
