# MagicaVoxel @ ephtracy

# material
mtllib streetlight.mtl
usemtl palette

# normals
vn -1 0 0
vn 1 0 0
vn 0 0 1
vn 0 0 -1
vn 0 -1 0
vn 0 1 0

# texcoords
vt 0.306641 0.5
vt 0.958984 0.5
vt 0.962891 0.5
vt 0.986328 0.5
vt 0.990234 0.5

# verts
v -6 0 -14.5
v -6 0 -25.5
v -6 1 -14.5
v -6 1 -25.5
v -5 1 -15.5
v -5 1 -16.5
v -5 1 -23.5
v -5 1 -24.5
v -5 2 -15.5
v -5 2 -16.5
v -5 2 -23.5
v -5 2 -24.5
v -5 121 23.5
v -5 121 15.5
v -5 122 23.5
v -5 122 15.5
v -4 120 23.5
v -4 120 15.5
v -4 121 23.5
v -4 121 15.5
v -3 1 -16.5
v -3 1 -17.5
v -3 1 -20.5
v -3 1 -22.5
v -3 81 -16.5
v -3 81 -17.5
v -3 81 -20.5
v -3 81 -22.5
v -3 120 24.5
v -3 120 23.5
v -3 120 15.5
v -3 120 13.5
v -3 121 25.5
v -3 121 24.5
v -3 121 23.5
v -3 121 15.5
v -3 121 13.5
v -3 122 25.5
v -3 122 23.5
v -3 122 15.5
v -3 122 13.5
v -2 81 -17.5
v -2 81 -20.5
v -2 81 -21.5
v -2 82 -18.5
v -2 82 -19.5
v -2 120 13.5
v -2 120 -17.5
v -2 121 13.5
v -2 122 13.5
v -2 122 -18.5
v -2 122 -19.5
v -2 122 -21.5
v 3 120 22.5
v 3 120 16.5
v 3 121 22.5
v 3 121 16.5
v 4 1 -15.5
v 4 1 -16.5
v 4 1 -23.5
v 4 1 -24.5
v 4 2 -15.5
v 4 2 -16.5
v 4 2 -23.5
v 4 2 -24.5
v -4 1 -15.5
v -4 1 -16.5
v -4 1 -23.5
v -4 1 -24.5
v -4 2 -15.5
v -4 2 -16.5
v -4 2 -23.5
v -4 2 -24.5
v -3 120 22.5
v -3 120 16.5
v -3 121 22.5
v -3 121 16.5
v 2 81 -17.5
v 2 81 -21.5
v 2 82 -17.5
v 2 82 -18.5
v 2 120 13.5
v 2 120 -17.5
v 2 120 -18.5
v 2 121 13.5
v 2 122 13.5
v 2 122 -21.5
v 3 1 -16.5
v 3 1 -22.5
v 3 81 -16.5
v 3 81 -22.5
v 3 120 24.5
v 3 120 23.5
v 3 120 15.5
v 3 120 13.5
v 3 121 25.5
v 3 121 24.5
v 3 121 23.5
v 3 121 15.5
v 3 121 13.5
v 3 122 25.5
v 3 122 23.5
v 3 122 15.5
v 3 122 13.5
v 4 120 23.5
v 4 120 15.5
v 4 121 23.5
v 4 121 15.5
v 5 1 -15.5
v 5 1 -16.5
v 5 1 -23.5
v 5 1 -24.5
v 5 2 -15.5
v 5 2 -16.5
v 5 2 -23.5
v 5 2 -24.5
v 5 121 23.5
v 5 121 15.5
v 5 122 23.5
v 5 122 15.5
v 6 0 -14.5
v 6 0 -25.5
v 6 1 -14.5
v 6 1 -25.5
v -3 121 25.5
v -3 122 25.5
v 3 121 25.5
v 3 122 25.5
v -3 120 24.5
v -3 121 24.5
v 3 120 24.5
v 3 121 24.5
v -5 121 23.5
v -5 122 23.5
v -4 120 23.5
v -4 121 23.5
v -3 120 23.5
v -3 121 23.5
v -3 122 23.5
v 3 120 23.5
v 3 121 23.5
v 3 122 23.5
v 4 120 23.5
v 4 121 23.5
v 5 121 23.5
v 5 122 23.5
v -3 120 16.5
v -3 121 16.5
v 3 120 16.5
v 3 121 16.5
v -6 0 -14.5
v -6 1 -14.5
v 6 0 -14.5
v 6 1 -14.5
v -5 1 -15.5
v -5 2 -15.5
v -4 1 -15.5
v -4 2 -15.5
v 4 1 -15.5
v 4 2 -15.5
v 5 1 -15.5
v 5 2 -15.5
v -3 1 -16.5
v -3 81 -16.5
v -2 1 -16.5
v -2 81 -16.5
v -1 1 -16.5
v -1 81 -16.5
v 0 1 -16.5
v 0 81 -16.5
v 2 1 -16.5
v 2 81 -16.5
v 3 1 -16.5
v 3 81 -16.5
v -2 81 -17.5
v -2 120 -17.5
v -1 81 -17.5
v 0 81 -17.5
v 0 82 -17.5
v 0 120 -17.5
v 2 81 -17.5
v 2 82 -17.5
v 2 120 -17.5
v -5 1 -23.5
v -5 2 -23.5
v -4 1 -23.5
v -4 2 -23.5
v 4 1 -23.5
v 4 2 -23.5
v 5 1 -23.5
v 5 2 -23.5
v -3 120 22.5
v -3 121 22.5
v 3 120 22.5
v 3 121 22.5
v -5 121 15.5
v -5 122 15.5
v -4 120 15.5
v -4 121 15.5
v -3 120 15.5
v -3 121 15.5
v -3 122 15.5
v 3 120 15.5
v 3 121 15.5
v 3 122 15.5
v 4 120 15.5
v 4 121 15.5
v 5 121 15.5
v 5 122 15.5
v -3 120 13.5
v -3 121 13.5
v -3 122 13.5
v -2 120 13.5
v -2 121 13.5
v -2 122 13.5
v 2 120 13.5
v 2 121 13.5
v 2 122 13.5
v 3 120 13.5
v 3 121 13.5
v 3 122 13.5
v -5 1 -16.5
v -5 2 -16.5
v -4 1 -16.5
v -4 2 -16.5
v 4 1 -16.5
v 4 2 -16.5
v 5 1 -16.5
v 5 2 -16.5
v -2 81 -21.5
v -2 122 -21.5
v 2 81 -21.5
v 2 122 -21.5
v -3 1 -22.5
v -3 81 -22.5
v 3 1 -22.5
v 3 81 -22.5
v -5 1 -24.5
v -5 2 -24.5
v -4 1 -24.5
v -4 2 -24.5
v 4 1 -24.5
v 4 2 -24.5
v 5 1 -24.5
v 5 2 -24.5
v -6 0 -25.5
v -6 1 -25.5
v 6 0 -25.5
v 6 1 -25.5
v -6 0 -14.5
v 6 0 -14.5
v -3 0 -16.5
v -2 0 -16.5
v -1 0 -16.5
v 0 0 -16.5
v 2 0 -16.5
v 3 0 -16.5
v -3 0 -17.5
v -2 0 -17.5
v -1 0 -17.5
v 0 0 -17.5
v 2 0 -17.5
v -3 0 -20.5
v -2 0 -20.5
v -2 0 -21.5
v 2 0 -21.5
v -3 0 -22.5
v 3 0 -22.5
v -6 0 -25.5
v 6 0 -25.5
v -3 120 24.5
v 3 120 24.5
v -4 120 23.5
v -3 120 23.5
v 3 120 23.5
v 4 120 23.5
v -3 120 22.5
v 3 120 22.5
v -3 120 16.5
v 3 120 16.5
v -4 120 15.5
v -3 120 15.5
v 3 120 15.5
v 4 120 15.5
v -3 120 13.5
v -2 120 13.5
v 2 120 13.5
v 3 120 13.5
v -2 120 -17.5
v 0 120 -17.5
v 2 120 -17.5
v -3 121 25.5
v 3 121 25.5
v -3 121 24.5
v 3 121 24.5
v -5 121 23.5
v -4 121 23.5
v 4 121 23.5
v 5 121 23.5
v -3 121 22.5
v 3 121 22.5
v -3 121 16.5
v 3 121 16.5
v -5 121 15.5
v -4 121 15.5
v 4 121 15.5
v 5 121 15.5
v -6 1 -14.5
v 6 1 -14.5
v -5 1 -15.5
v -4 1 -15.5
v 4 1 -15.5
v 5 1 -15.5
v -5 1 -16.5
v -4 1 -16.5
v -3 1 -16.5
v -2 1 -16.5
v -1 1 -16.5
v 0 1 -16.5
v 2 1 -16.5
v 3 1 -16.5
v 4 1 -16.5
v 5 1 -16.5
v -3 1 -17.5
v -3 1 -20.5
v -3 1 -22.5
v 3 1 -22.5
v -5 1 -23.5
v -4 1 -23.5
v 4 1 -23.5
v 5 1 -23.5
v -5 1 -24.5
v -4 1 -24.5
v 4 1 -24.5
v 5 1 -24.5
v -6 1 -25.5
v 6 1 -25.5
v -5 2 -15.5
v -4 2 -15.5
v 4 2 -15.5
v 5 2 -15.5
v -5 2 -16.5
v -4 2 -16.5
v 4 2 -16.5
v 5 2 -16.5
v -5 2 -23.5
v -4 2 -23.5
v 4 2 -23.5
v 5 2 -23.5
v -5 2 -24.5
v -4 2 -24.5
v 4 2 -24.5
v 5 2 -24.5
v -3 81 -16.5
v -2 81 -16.5
v -1 81 -16.5
v 0 81 -16.5
v 2 81 -16.5
v 3 81 -16.5
v -3 81 -17.5
v -2 81 -17.5
v -1 81 -17.5
v 0 81 -17.5
v 2 81 -17.5
v -3 81 -20.5
v -2 81 -20.5
v -2 81 -21.5
v 2 81 -21.5
v -3 81 -22.5
v 3 81 -22.5
v -3 122 25.5
v 3 122 25.5
v -5 122 23.5
v -3 122 23.5
v 3 122 23.5
v 5 122 23.5
v -5 122 15.5
v -3 122 15.5
v 3 122 15.5
v 5 122 15.5
v -3 122 13.5
v -2 122 13.5
v 2 122 13.5
v 3 122 13.5
v -2 122 -18.5
v -1 122 -18.5
v -2 122 -19.5
v -1 122 -19.5
v -2 122 -21.5
v 2 122 -21.5

# faces
f 3/4/1 2/4/1 1/4/1
f 4/4/1 2/4/1 3/4/1
f 9/2/1 6/2/1 5/2/1
f 10/2/1 6/2/1 9/2/1
f 11/2/1 8/2/1 7/2/1
f 12/2/1 8/2/1 11/2/1
f 15/5/1 14/5/1 13/5/1
f 16/5/1 14/5/1 15/5/1
f 19/3/1 18/3/1 17/3/1
f 20/3/1 18/3/1 19/3/1
f 25/5/1 22/5/1 21/5/1
f 26/4/1 23/4/1 22/4/1
f 26/5/1 22/5/1 25/5/1
f 27/5/1 24/5/1 23/5/1
f 27/4/1 23/4/1 26/4/1
f 28/5/1 24/5/1 27/5/1
f 34/3/1 30/3/1 29/3/1
f 35/3/1 30/3/1 34/3/1
f 36/3/1 32/3/1 31/3/1
f 37/3/1 32/3/1 36/3/1
f 38/5/1 35/5/1 34/5/1
f 38/5/1 34/5/1 33/5/1
f 39/5/1 35/5/1 38/5/1
f 40/5/1 37/5/1 36/5/1
f 41/5/1 37/5/1 40/5/1
f 45/5/1 43/5/1 42/5/1
f 45/5/1 44/5/1 43/5/1
f 46/5/1 44/5/1 45/5/1
f 48/5/1 45/5/1 42/5/1
f 49/5/1 48/5/1 47/5/1
f 50/5/1 48/5/1 49/5/1
f 51/4/1 46/4/1 45/4/1
f 51/5/1 48/5/1 50/5/1
f 51/5/1 45/5/1 48/5/1
f 52/5/1 44/5/1 46/5/1
f 52/4/1 46/4/1 51/4/1
f 53/5/1 44/5/1 52/5/1
f 56/3/1 55/3/1 54/3/1
f 57/3/1 55/3/1 56/3/1
f 62/2/1 59/2/1 58/2/1
f 63/2/1 59/2/1 62/2/1
f 64/2/1 61/2/1 60/2/1
f 65/2/1 61/2/1 64/2/1
f 66/2/2 67/2/2 70/2/2
f 70/2/2 67/2/2 71/2/2
f 68/2/2 69/2/2 72/2/2
f 72/2/2 69/2/2 73/2/2
f 74/3/2 75/3/2 76/3/2
f 76/3/2 75/3/2 77/3/2
f 78/5/2 79/5/2 80/5/2
f 80/5/2 79/5/2 81/5/2
f 80/4/2 81/4/2 83/4/2
f 81/5/2 79/5/2 84/5/2
f 83/4/2 81/4/2 84/4/2
f 82/5/2 83/5/2 85/5/2
f 83/5/2 84/5/2 85/5/2
f 85/5/2 84/5/2 86/5/2
f 84/5/2 79/5/2 87/5/2
f 86/5/2 84/5/2 87/5/2
f 88/5/2 89/5/2 90/5/2
f 90/5/2 89/5/2 91/5/2
f 92/3/2 93/3/2 97/3/2
f 97/3/2 93/3/2 98/3/2
f 94/3/2 95/3/2 99/3/2
f 99/3/2 95/3/2 100/3/2
f 97/5/2 98/5/2 101/5/2
f 96/5/2 97/5/2 101/5/2
f 101/5/2 98/5/2 102/5/2
f 99/5/2 100/5/2 103/5/2
f 103/5/2 100/5/2 104/5/2
f 105/3/2 106/3/2 107/3/2
f 107/3/2 106/3/2 108/3/2
f 109/2/2 110/2/2 113/2/2
f 113/2/2 110/2/2 114/2/2
f 111/2/2 112/2/2 115/2/2
f 115/2/2 112/2/2 116/2/2
f 117/5/2 118/5/2 119/5/2
f 119/5/2 118/5/2 120/5/2
f 121/4/2 122/4/2 123/4/2
f 123/4/2 122/4/2 124/4/2
f 127/5/3 126/5/3 125/5/3
f 128/5/3 126/5/3 127/5/3
f 131/3/3 130/3/3 129/3/3
f 132/3/3 130/3/3 131/3/3
f 136/5/3 134/5/3 133/5/3
f 137/3/3 136/3/3 135/3/3
f 138/5/3 134/5/3 136/5/3
f 138/3/3 136/3/3 137/3/3
f 139/5/3 134/5/3 138/5/3
f 143/3/3 141/3/3 140/3/3
f 144/5/3 142/5/3 141/5/3
f 144/3/3 141/3/3 143/3/3
f 145/5/3 142/5/3 144/5/3
f 146/5/3 142/5/3 145/5/3
f 149/3/3 148/3/3 147/3/3
f 150/3/3 148/3/3 149/3/3
f 153/4/3 152/4/3 151/4/3
f 154/4/3 152/4/3 153/4/3
f 157/2/3 156/2/3 155/2/3
f 158/2/3 156/2/3 157/2/3
f 161/2/3 160/2/3 159/2/3
f 162/2/3 160/2/3 161/2/3
f 165/5/3 164/5/3 163/5/3
f 166/5/3 164/5/3 165/5/3
f 167/4/3 166/4/3 165/4/3
f 168/4/3 166/4/3 167/4/3
f 169/5/3 168/5/3 167/5/3
f 170/5/3 168/5/3 169/5/3
f 171/4/3 170/4/3 169/4/3
f 172/4/3 170/4/3 171/4/3
f 173/5/3 172/5/3 171/5/3
f 174/5/3 172/5/3 173/5/3
f 177/5/3 176/5/3 175/5/3
f 178/5/3 176/5/3 177/5/3
f 179/5/3 176/5/3 178/5/3
f 180/5/3 176/5/3 179/5/3
f 181/5/3 179/5/3 178/5/3
f 182/4/3 180/4/3 179/4/3
f 182/5/3 179/5/3 181/5/3
f 183/4/3 180/4/3 182/4/3
f 186/2/3 185/2/3 184/2/3
f 187/2/3 185/2/3 186/2/3
f 190/2/3 189/2/3 188/2/3
f 191/2/3 189/2/3 190/2/3
f 192/3/4 193/3/4 194/3/4
f 194/3/4 193/3/4 195/3/4
f 196/5/4 197/5/4 199/5/4
f 198/3/4 199/3/4 200/3/4
f 199/5/4 197/5/4 201/5/4
f 200/3/4 199/3/4 201/3/4
f 201/5/4 197/5/4 202/5/4
f 203/3/4 204/3/4 206/3/4
f 204/5/4 205/5/4 207/5/4
f 206/3/4 204/3/4 207/3/4
f 207/5/4 205/5/4 208/5/4
f 208/5/4 205/5/4 209/5/4
f 210/3/4 211/3/4 213/3/4
f 211/5/4 212/5/4 214/5/4
f 213/3/4 211/3/4 214/3/4
f 214/5/4 212/5/4 215/5/4
f 216/3/4 217/3/4 219/3/4
f 217/5/4 218/5/4 220/5/4
f 219/3/4 217/3/4 220/3/4
f 220/5/4 218/5/4 221/5/4
f 222/2/4 223/2/4 224/2/4
f 224/2/4 223/2/4 225/2/4
f 226/2/4 227/2/4 228/2/4
f 228/2/4 227/2/4 229/2/4
f 230/5/4 231/5/4 232/5/4
f 232/5/4 231/5/4 233/5/4
f 234/5/4 235/5/4 236/5/4
f 236/5/4 235/5/4 237/5/4
f 238/2/4 239/2/4 240/2/4
f 240/2/4 239/2/4 241/2/4
f 242/2/4 243/2/4 244/2/4
f 244/2/4 243/2/4 245/2/4
f 246/4/4 247/4/4 248/4/4
f 248/4/4 247/4/4 249/4/4
f 252/4/5 251/4/5 250/4/5
f 253/4/5 251/4/5 252/4/5
f 254/4/5 251/4/5 253/4/5
f 255/4/5 251/4/5 254/4/5
f 256/4/5 251/4/5 255/4/5
f 257/4/5 251/4/5 256/4/5
f 258/4/5 252/4/5 250/4/5
f 258/5/5 253/5/5 252/5/5
f 259/4/5 254/4/5 253/4/5
f 259/5/5 253/5/5 258/5/5
f 260/5/5 255/5/5 254/5/5
f 260/4/5 254/4/5 259/4/5
f 261/4/5 256/4/5 255/4/5
f 261/5/5 255/5/5 260/5/5
f 262/5/5 257/5/5 256/5/5
f 262/4/5 256/4/5 261/4/5
f 263/4/5 258/4/5 250/4/5
f 263/4/5 259/4/5 258/4/5
f 264/1/5 261/1/5 260/1/5
f 264/4/5 259/4/5 263/4/5
f 264/1/5 262/1/5 261/1/5
f 264/1/5 260/1/5 259/1/5
f 265/5/5 264/5/5 263/5/5
f 265/1/5 262/1/5 264/1/5
f 266/5/5 257/5/5 262/5/5
f 266/1/5 262/1/5 265/1/5
f 267/4/5 263/4/5 250/4/5
f 267/5/5 265/5/5 263/5/5
f 267/5/5 266/5/5 265/5/5
f 268/4/5 251/4/5 257/4/5
f 268/5/5 266/5/5 267/5/5
f 268/5/5 257/5/5 266/5/5
f 269/4/5 267/4/5 250/4/5
f 269/4/5 268/4/5 267/4/5
f 270/4/5 251/4/5 268/4/5
f 270/4/5 268/4/5 269/4/5
f 274/3/5 272/3/5 271/3/5
f 275/3/5 272/3/5 274/3/5
f 277/3/5 274/3/5 273/3/5
f 277/3/5 276/3/5 275/3/5
f 277/3/5 275/3/5 274/3/5
f 278/3/5 276/3/5 277/3/5
f 279/3/5 277/3/5 273/3/5
f 280/3/5 276/3/5 278/3/5
f 281/3/5 279/3/5 273/3/5
f 281/3/5 280/3/5 279/3/5
f 282/3/5 280/3/5 281/3/5
f 283/3/5 276/3/5 280/3/5
f 283/3/5 280/3/5 282/3/5
f 284/3/5 276/3/5 283/3/5
f 285/3/5 283/3/5 282/3/5
f 286/3/5 283/3/5 285/3/5
f 287/3/5 283/3/5 286/3/5
f 288/3/5 283/3/5 287/3/5
f 289/5/5 287/5/5 286/5/5
f 290/5/5 287/5/5 289/5/5
f 291/5/5 287/5/5 290/5/5
f 294/5/5 293/5/5 292/5/5
f 295/5/5 293/5/5 294/5/5
f 302/5/5 301/5/5 300/5/5
f 303/5/5 301/5/5 302/5/5
f 304/5/5 297/5/5 296/5/5
f 305/5/5 297/5/5 304/5/5
f 306/5/5 299/5/5 298/5/5
f 307/5/5 299/5/5 306/5/5
f 308/4/6 309/4/6 310/4/6
f 310/4/6 309/4/6 311/4/6
f 311/4/6 309/4/6 312/4/6
f 312/4/6 309/4/6 313/4/6
f 308/4/6 310/4/6 314/4/6
f 311/4/6 312/4/6 315/4/6
f 315/4/6 312/4/6 316/4/6
f 316/4/6 312/4/6 317/4/6
f 317/4/6 312/4/6 318/4/6
f 318/4/6 312/4/6 319/4/6
f 319/4/6 312/4/6 320/4/6
f 320/4/6 312/4/6 321/4/6
f 321/4/6 312/4/6 322/4/6
f 313/4/6 309/4/6 323/4/6
f 314/4/6 315/4/6 324/4/6
f 315/4/6 316/4/6 324/4/6
f 314/4/6 324/4/6 325/4/6
f 314/4/6 325/4/6 326/4/6
f 321/4/6 322/4/6 327/4/6
f 322/4/6 323/4/6 327/4/6
f 314/4/6 326/4/6 328/4/6
f 326/4/6 327/4/6 328/4/6
f 308/4/6 314/4/6 328/4/6
f 328/4/6 327/4/6 329/4/6
f 327/4/6 323/4/6 330/4/6
f 329/4/6 327/4/6 330/4/6
f 323/4/6 309/4/6 331/4/6
f 330/4/6 323/4/6 331/4/6
f 308/4/6 328/4/6 332/4/6
f 329/4/6 330/4/6 333/4/6
f 333/4/6 330/4/6 334/4/6
f 331/4/6 309/4/6 335/4/6
f 333/4/6 334/4/6 336/4/6
f 334/4/6 335/4/6 336/4/6
f 308/4/6 332/4/6 336/4/6
f 332/4/6 333/4/6 336/4/6
f 335/4/6 309/4/6 337/4/6
f 336/4/6 335/4/6 337/4/6
f 338/2/6 339/2/6 342/2/6
f 342/2/6 339/2/6 343/2/6
f 340/2/6 341/2/6 344/2/6
f 344/2/6 341/2/6 345/2/6
f 346/2/6 347/2/6 350/2/6
f 350/2/6 347/2/6 351/2/6
f 348/2/6 349/2/6 352/2/6
f 352/2/6 349/2/6 353/2/6
f 354/5/6 355/5/6 360/5/6
f 355/4/6 356/4/6 361/4/6
f 360/5/6 355/5/6 361/5/6
f 356/5/6 357/5/6 362/5/6
f 361/4/6 356/4/6 362/4/6
f 357/4/6 358/4/6 363/4/6
f 362/5/6 357/5/6 363/5/6
f 358/5/6 359/5/6 364/5/6
f 363/4/6 358/4/6 364/4/6
f 360/4/6 361/4/6 365/4/6
f 365/4/6 361/4/6 366/4/6
f 365/5/6 366/5/6 367/5/6
f 364/5/6 359/5/6 368/5/6
f 365/5/6 367/5/6 369/5/6
f 367/5/6 368/5/6 369/5/6
f 368/5/6 359/5/6 370/5/6
f 369/5/6 368/5/6 370/5/6
f 371/5/6 372/5/6 374/5/6
f 374/5/6 372/5/6 375/5/6
f 373/5/6 374/5/6 377/5/6
f 375/5/6 376/5/6 377/5/6
f 374/5/6 375/5/6 377/5/6
f 377/5/6 376/5/6 378/5/6
f 378/5/6 376/5/6 379/5/6
f 379/5/6 376/5/6 380/5/6
f 378/5/6 379/5/6 381/5/6
f 381/5/6 379/5/6 382/5/6
f 382/5/6 379/5/6 383/5/6
f 383/5/6 379/5/6 384/5/6
f 382/5/6 383/5/6 385/5/6
f 385/5/6 383/5/6 386/5/6
f 385/4/6 386/4/6 387/4/6
f 386/5/6 383/5/6 388/5/6
f 387/4/6 386/4/6 388/4/6
f 387/5/6 388/5/6 389/5/6
f 388/5/6 383/5/6 390/5/6
f 389/5/6 388/5/6 390/5/6
