# MagicaVoxel @ ephtracy

# material
mtllib mailbox.mtl
usemtl palette

# normals
vn -1 0 0
vn 1 0 0
vn 0 0 1
vn 0 0 -1
vn 0 -1 0
vn 0 1 0

# texcoords
vt 0.306641 0.5
vt 0.658203 0.5
vt 0.666016 0.5
vt 0.806641 0.5

# verts
v -20 0 16
v -20 0 14
v -20 0 -14
v -20 0 -16
v -20 8 14
v -20 8 -14
v -20 42 16
v -20 42 9
v -20 44 16
v -20 44 14
v -20 46 14
v -20 46 10
v -20 62 -15
v -20 62 -16
v -20 64 14
v -20 64 10
v -20 64 9
v -20 66 14
v -20 66 13
v -20 67 -13
v -20 67 -15
v -20 68 13
v -20 68 12
v -20 70 12
v -20 70 10
v -20 70 -11
v -20 70 -13
v -20 72 10
v -20 72 8
v -20 72 -8
v -20 72 -11
v -20 73 8
v -20 73 6
v -20 73 -4
v -20 73 -8
v -20 74 6
v -20 74 -4
v -6 54 14
v -6 54 10
v -6 56 14
v -6 56 10
v 6 54 12
v 6 54 10
v 6 56 12
v 6 56 10
v 18 0 16
v 18 0 14
v 18 0 -14
v 18 0 -16
v 18 8 16
v 18 8 14
v 18 8 -14
v 18 8 -16
v -18 0 16
v -18 0 14
v -18 0 -14
v -18 0 -16
v -18 8 16
v -18 8 14
v -18 8 -14
v -18 8 -16
v -4 54 12
v -4 54 10
v -4 56 12
v -4 56 10
v 8 54 14
v 8 54 10
v 8 56 14
v 8 56 10
v 20 0 16
v 20 0 14
v 20 0 -14
v 20 0 -16
v 20 8 14
v 20 8 -14
v 20 42 16
v 20 42 9
v 20 44 16
v 20 44 14
v 20 46 14
v 20 46 10
v 20 62 -15
v 20 62 -16
v 20 64 14
v 20 64 10
v 20 64 9
v 20 66 14
v 20 66 13
v 20 67 -13
v 20 67 -15
v 20 68 13
v 20 68 12
v 20 70 12
v 20 70 10
v 20 70 -11
v 20 70 -13
v 20 72 10
v 20 72 8
v 20 72 -8
v 20 72 -11
v 20 73 8
v 20 73 6
v 20 73 -4
v 20 73 -8
v 20 74 6
v 20 74 -4
v -20 0 16
v -20 42 16
v -20 44 16
v -18 0 16
v -18 8 16
v -18 12 16
v -18 40 16
v -16 14 16
v -16 38 16
v 16 14 16
v 16 38 16
v 18 0 16
v 18 8 16
v 18 12 16
v 18 40 16
v 20 0 16
v 20 42 16
v 20 44 16
v -20 44 14
v -20 46 14
v -20 64 14
v -20 66 14
v -6 54 14
v -6 56 14
v 8 54 14
v 8 56 14
v 20 44 14
v 20 46 14
v 20 64 14
v 20 66 14
v -20 66 13
v -20 68 13
v 20 66 13
v 20 68 13
v -20 68 12
v -20 70 12
v 20 68 12
v 20 70 12
v -20 46 10
v -20 64 10
v -20 70 10
v -20 72 10
v -19 46 10
v -19 64 10
v -18 64 10
v -6 54 10
v -6 56 10
v -4 54 10
v -4 56 10
v 6 54 10
v 6 56 10
v 8 54 10
v 8 56 10
v 18 64 10
v 19 46 10
v 19 64 10
v 20 46 10
v 20 64 10
v 20 70 10
v 20 72 10
v -20 72 8
v -20 73 8
v 20 72 8
v 20 73 8
v -20 73 6
v -20 74 6
v 20 73 6
v 20 74 6
v -20 0 -14
v -20 8 -14
v -18 0 -14
v -18 8 -14
v 18 0 -14
v 18 8 -14
v 20 0 -14
v 20 8 -14
v -20 0 14
v -20 8 14
v -18 0 14
v -18 8 14
v 18 0 14
v 18 8 14
v 20 0 14
v 20 8 14
v -4 54 12
v -4 56 12
v 6 54 12
v 6 56 12
v -20 73 -4
v -20 74 -4
v 20 73 -4
v 20 74 -4
v -20 72 -8
v -20 73 -8
v 20 72 -8
v 20 73 -8
v -20 70 -11
v -20 72 -11
v 20 70 -11
v 20 72 -11
v -20 67 -13
v -20 70 -13
v 20 67 -13
v 20 70 -13
v -20 62 -15
v -20 67 -15
v 20 62 -15
v 20 67 -15
v -20 0 -16
v -20 62 -16
v -18 0 -16
v -18 8 -16
v 18 0 -16
v 18 8 -16
v 20 0 -16
v 20 62 -16
v -20 0 16
v -18 0 16
v 18 0 16
v 20 0 16
v -20 0 14
v -18 0 14
v 18 0 14
v 20 0 14
v -20 0 -14
v -18 0 -14
v 18 0 -14
v 20 0 -14
v -20 0 -16
v -18 0 -16
v 18 0 -16
v 20 0 -16
v -18 8 16
v 18 8 16
v -20 8 14
v -18 8 14
v 18 8 14
v 20 8 14
v -18 8 -10
v 18 8 -10
v -20 8 -14
v -18 8 -14
v 18 8 -14
v 20 8 -14
v -18 8 -16
v 18 8 -16
v -6 54 14
v 8 54 14
v -4 54 12
v 6 54 12
v -6 54 10
v -4 54 10
v 6 54 10
v 8 54 10
v -20 64 14
v 20 64 14
v -18 64 12
v 18 64 12
v -20 64 10
v -19 64 10
v -18 64 10
v 18 64 10
v 19 64 10
v 20 64 10
v -20 44 16
v 20 44 16
v -20 44 14
v 20 44 14
v -20 46 14
v 20 46 14
v -20 46 10
v -19 46 10
v 19 46 10
v 20 46 10
v -6 56 14
v 8 56 14
v -4 56 12
v 6 56 12
v -6 56 10
v -4 56 10
v 6 56 10
v 8 56 10
v -20 62 -15
v 20 62 -15
v -20 62 -16
v 20 62 -16
v -20 66 14
v 20 66 14
v -20 66 13
v 20 66 13
v -20 67 -13
v 20 67 -13
v -20 67 -15
v 20 67 -15
v -20 68 13
v 20 68 13
v -20 68 12
v 20 68 12
v -20 70 12
v 20 70 12
v -20 70 10
v 20 70 10
v -20 70 -11
v 20 70 -11
v -20 70 -13
v 20 70 -13
v -20 72 10
v 20 72 10
v -20 72 8
v 20 72 8
v -20 72 -8
v 20 72 -8
v -20 72 -11
v 20 72 -11
v -20 73 8
v 20 73 8
v -20 73 6
v 20 73 6
v -20 73 -4
v 20 73 -4
v -20 73 -8
v 20 73 -8
v -20 74 6
v 20 74 6
v -20 74 -4
v 20 74 -4

# faces
f 5/2/1 2/2/1 1/2/1
f 6/2/1 4/2/1 3/2/1
f 7/2/1 5/2/1 1/2/1
f 7/2/1 6/2/1 5/2/1
f 8/2/1 6/2/1 7/2/1
f 9/3/1 8/3/1 7/3/1
f 10/3/1 8/3/1 9/3/1
f 11/3/1 8/3/1 10/3/1
f 12/3/1 8/3/1 11/3/1
f 13/2/1 4/2/1 6/2/1
f 13/2/1 6/2/1 8/2/1
f 14/2/1 4/2/1 13/2/1
f 16/3/1 8/3/1 12/3/1
f 17/2/1 13/2/1 8/2/1
f 17/3/1 8/3/1 16/3/1
f 18/2/1 16/2/1 15/2/1
f 18/2/1 17/2/1 16/2/1
f 19/2/1 17/2/1 18/2/1
f 20/2/1 13/2/1 17/2/1
f 20/2/1 17/2/1 19/2/1
f 21/2/1 13/2/1 20/2/1
f 22/2/1 20/2/1 19/2/1
f 23/2/1 20/2/1 22/2/1
f 24/2/1 20/2/1 23/2/1
f 25/2/1 20/2/1 24/2/1
f 26/2/1 20/2/1 25/2/1
f 27/2/1 20/2/1 26/2/1
f 28/2/1 26/2/1 25/2/1
f 29/2/1 26/2/1 28/2/1
f 30/2/1 26/2/1 29/2/1
f 31/2/1 26/2/1 30/2/1
f 32/2/1 30/2/1 29/2/1
f 33/2/1 30/2/1 32/2/1
f 34/2/1 30/2/1 33/2/1
f 35/2/1 30/2/1 34/2/1
f 36/2/1 34/2/1 33/2/1
f 37/2/1 34/2/1 36/2/1
f 40/1/1 39/1/1 38/1/1
f 41/1/1 39/1/1 40/1/1
f 44/1/1 43/1/1 42/1/1
f 45/1/1 43/1/1 44/1/1
f 50/2/1 47/2/1 46/2/1
f 51/2/1 47/2/1 50/2/1
f 52/2/1 49/2/1 48/2/1
f 53/2/1 49/2/1 52/2/1
f 54/2/2 55/2/2 58/2/2
f 58/2/2 55/2/2 59/2/2
f 56/2/2 57/2/2 60/2/2
f 60/2/2 57/2/2 61/2/2
f 62/1/2 63/1/2 64/1/2
f 64/1/2 63/1/2 65/1/2
f 66/1/2 67/1/2 68/1/2
f 68/1/2 67/1/2 69/1/2
f 70/2/2 71/2/2 74/2/2
f 72/2/2 73/2/2 75/2/2
f 70/2/2 74/2/2 76/2/2
f 74/2/2 75/2/2 76/2/2
f 76/2/2 75/2/2 77/2/2
f 76/3/2 77/3/2 78/3/2
f 78/3/2 77/3/2 79/3/2
f 79/3/2 77/3/2 80/3/2
f 80/3/2 77/3/2 81/3/2
f 75/2/2 73/2/2 82/2/2
f 77/2/2 75/2/2 82/2/2
f 82/2/2 73/2/2 83/2/2
f 81/3/2 77/3/2 85/3/2
f 77/2/2 82/2/2 86/2/2
f 85/3/2 77/3/2 86/3/2
f 84/2/2 85/2/2 87/2/2
f 85/2/2 86/2/2 87/2/2
f 87/2/2 86/2/2 88/2/2
f 86/2/2 82/2/2 89/2/2
f 88/2/2 86/2/2 89/2/2
f 89/2/2 82/2/2 90/2/2
f 88/2/2 89/2/2 91/2/2
f 91/2/2 89/2/2 92/2/2
f 92/2/2 89/2/2 93/2/2
f 93/2/2 89/2/2 94/2/2
f 94/2/2 89/2/2 95/2/2
f 95/2/2 89/2/2 96/2/2
f 94/2/2 95/2/2 97/2/2
f 97/2/2 95/2/2 98/2/2
f 98/2/2 95/2/2 99/2/2
f 99/2/2 95/2/2 100/2/2
f 98/2/2 99/2/2 101/2/2
f 101/2/2 99/2/2 102/2/2
f 102/2/2 99/2/2 103/2/2
f 103/2/2 99/2/2 104/2/2
f 102/2/2 103/2/2 105/2/2
f 105/2/2 103/2/2 106/2/2
f 110/2/3 108/2/3 107/2/3
f 111/2/3 108/2/3 110/2/3
f 112/2/3 108/2/3 111/2/3
f 113/2/3 108/2/3 112/2/3
f 114/4/3 113/4/3 112/4/3
f 115/4/3 113/4/3 114/4/3
f 116/4/3 114/4/3 112/4/3
f 116/2/3 115/2/3 114/2/3
f 117/4/3 113/4/3 115/4/3
f 117/2/3 115/2/3 116/2/3
f 119/2/3 112/2/3 111/2/3
f 120/4/3 116/4/3 112/4/3
f 120/4/3 117/4/3 116/4/3
f 120/2/3 112/2/3 119/2/3
f 121/2/3 108/2/3 113/2/3
f 121/4/3 117/4/3 120/4/3
f 121/4/3 113/4/3 117/4/3
f 122/2/3 120/2/3 119/2/3
f 122/2/3 119/2/3 118/2/3
f 122/2/3 121/2/3 120/2/3
f 123/3/3 109/3/3 108/3/3
f 123/2/3 121/2/3 122/2/3
f 123/2/3 108/2/3 121/2/3
f 124/3/3 109/3/3 123/3/3
f 131/1/3 130/1/3 129/1/3
f 132/1/3 130/1/3 131/1/3
f 133/3/3 126/3/3 125/3/3
f 134/3/3 126/3/3 133/3/3
f 135/2/3 128/2/3 127/2/3
f 136/2/3 128/2/3 135/2/3
f 139/2/3 138/2/3 137/2/3
f 140/2/3 138/2/3 139/2/3
f 143/2/3 142/2/3 141/2/3
f 144/2/3 142/2/3 143/2/3
f 149/3/3 146/3/3 145/3/3
f 150/3/3 146/3/3 149/3/3
f 151/2/3 150/2/3 149/2/3
f 152/2/3 151/2/3 149/2/3
f 153/2/3 151/2/3 152/2/3
f 154/2/3 152/2/3 149/2/3
f 155/2/3 151/2/3 153/2/3
f 156/2/3 154/2/3 149/2/3
f 156/2/3 155/2/3 154/2/3
f 157/2/3 151/2/3 155/2/3
f 157/2/3 155/2/3 156/2/3
f 158/2/3 156/2/3 149/2/3
f 159/2/3 151/2/3 157/2/3
f 160/2/3 151/2/3 159/2/3
f 160/2/3 159/2/3 158/2/3
f 161/2/3 158/2/3 149/2/3
f 161/2/3 160/2/3 158/2/3
f 162/2/3 160/2/3 161/2/3
f 163/3/3 162/3/3 161/3/3
f 164/3/3 162/3/3 163/3/3
f 165/2/3 148/2/3 147/2/3
f 166/2/3 148/2/3 165/2/3
f 169/2/3 168/2/3 167/2/3
f 170/2/3 168/2/3 169/2/3
f 173/2/3 172/2/3 171/2/3
f 174/2/3 172/2/3 173/2/3
f 177/2/3 176/2/3 175/2/3
f 178/2/3 176/2/3 177/2/3
f 181/2/3 180/2/3 179/2/3
f 182/2/3 180/2/3 181/2/3
f 183/2/4 184/2/4 185/2/4
f 185/2/4 184/2/4 186/2/4
f 187/2/4 188/2/4 189/2/4
f 189/2/4 188/2/4 190/2/4
f 191/1/4 192/1/4 193/1/4
f 193/1/4 192/1/4 194/1/4
f 195/2/4 196/2/4 197/2/4
f 197/2/4 196/2/4 198/2/4
f 199/2/4 200/2/4 201/2/4
f 201/2/4 200/2/4 202/2/4
f 203/2/4 204/2/4 205/2/4
f 205/2/4 204/2/4 206/2/4
f 207/2/4 208/2/4 209/2/4
f 209/2/4 208/2/4 210/2/4
f 211/2/4 212/2/4 213/2/4
f 213/2/4 212/2/4 214/2/4
f 215/2/4 216/2/4 217/2/4
f 217/2/4 216/2/4 218/2/4
f 218/2/4 216/2/4 220/2/4
f 219/2/4 220/2/4 221/2/4
f 220/2/4 216/2/4 222/2/4
f 221/2/4 220/2/4 222/2/4
f 227/2/5 224/2/5 223/2/5
f 228/2/5 224/2/5 227/2/5
f 229/2/5 226/2/5 225/2/5
f 230/2/5 226/2/5 229/2/5
f 235/2/5 232/2/5 231/2/5
f 236/2/5 232/2/5 235/2/5
f 237/2/5 234/2/5 233/2/5
f 238/2/5 234/2/5 237/2/5
f 242/2/5 240/2/5 239/2/5
f 243/2/5 240/2/5 242/2/5
f 245/2/5 242/2/5 241/2/5
f 245/1/5 243/1/5 242/1/5
f 246/2/5 244/2/5 243/2/5
f 246/1/5 243/1/5 245/1/5
f 247/2/5 245/2/5 241/2/5
f 247/2/5 246/2/5 245/2/5
f 248/2/5 246/2/5 247/2/5
f 249/2/5 244/2/5 246/2/5
f 249/2/5 246/2/5 248/2/5
f 250/2/5 244/2/5 249/2/5
f 251/2/5 249/2/5 248/2/5
f 252/2/5 249/2/5 251/2/5
f 255/1/5 254/1/5 253/1/5
f 256/1/5 254/1/5 255/1/5
f 257/1/5 255/1/5 253/1/5
f 258/1/5 255/1/5 257/1/5
f 259/1/5 254/1/5 256/1/5
f 260/1/5 254/1/5 259/1/5
f 263/2/5 262/2/5 261/2/5
f 264/2/5 262/2/5 263/2/5
f 265/2/5 263/2/5 261/2/5
f 266/2/5 263/2/5 265/2/5
f 267/1/5 264/1/5 263/1/5
f 267/2/5 263/2/5 266/2/5
f 268/2/5 262/2/5 264/2/5
f 268/1/5 264/1/5 267/1/5
f 269/2/5 262/2/5 268/2/5
f 270/2/5 262/2/5 269/2/5
f 271/3/6 272/3/6 273/3/6
f 273/3/6 272/3/6 274/3/6
f 275/3/6 276/3/6 277/3/6
f 277/3/6 276/3/6 278/3/6
f 278/3/6 276/3/6 279/3/6
f 279/3/6 276/3/6 280/3/6
f 281/1/6 282/1/6 283/1/6
f 283/1/6 282/1/6 284/1/6
f 281/1/6 283/1/6 285/1/6
f 285/1/6 283/1/6 286/1/6
f 284/1/6 282/1/6 287/1/6
f 287/1/6 282/1/6 288/1/6
f 289/2/6 290/2/6 291/2/6
f 291/2/6 290/2/6 292/2/6
f 293/2/6 294/2/6 295/2/6
f 295/2/6 294/2/6 296/2/6
f 297/2/6 298/2/6 299/2/6
f 299/2/6 298/2/6 300/2/6
f 301/2/6 302/2/6 303/2/6
f 303/2/6 302/2/6 304/2/6
f 305/2/6 306/2/6 307/2/6
f 307/2/6 306/2/6 308/2/6
f 309/2/6 310/2/6 311/2/6
f 311/2/6 310/2/6 312/2/6
f 313/2/6 314/2/6 315/2/6
f 315/2/6 314/2/6 316/2/6
f 317/2/6 318/2/6 319/2/6
f 319/2/6 318/2/6 320/2/6
f 321/2/6 322/2/6 323/2/6
f 323/2/6 322/2/6 324/2/6
f 325/2/6 326/2/6 327/2/6
f 327/2/6 326/2/6 328/2/6
f 329/2/6 330/2/6 331/2/6
f 331/2/6 330/2/6 332/2/6
